ISO-10303-21;
HEADER;
FILE_DESCRIPTION (( 'STEP AP214' ),
    '1' );
FILE_NAME ('RMÖÜ±ß.STEP',
    '2026-05-28T02:02:12',
    ( '' ),
    ( '' ),
    'SwSTEP 2.0',
    'SolidWorks 2025',
    '' );
FILE_SCHEMA (( 'AUTOMOTIVE_DESIGN' ));
ENDSEC;

DATA;
#1 = SHAPE_DEFINITION_REPRESENTATION ( #795, #471 ) ;
#2 = EDGE_CURVE ( 'NONE', #389, #801, #202, .T. ) ;
#3 = VERTEX_POINT ( 'NONE', #408 ) ;
#4 = PLANE ( 'NONE',  #513 ) ;
#5 = ORIENTED_EDGE ( 'NONE', *, *, #217, .F. ) ;
#6 = AXIS2_PLACEMENT_3D ( 'NONE', #221, #295, #774 ) ;
#7 = CARTESIAN_POINT ( 'NONE',  ( 32.24010339936408087, 0.000000000000000000, -33.01154977801223112 ) ) ;
#8 = CARTESIAN_POINT ( 'NONE',  ( 6.427104669941083870, 1.000000000000000000, -31.82022930167423169 ) ) ;
#9 = DIRECTION ( 'NONE',  ( 1.000000000000000000, 0.000000000000000000, -0.000000000000000000 ) ) ;
#10 = ORIENTED_EDGE ( 'NONE', *, *, #73, .F. ) ;
#11 = AXIS2_PLACEMENT_3D ( 'NONE', #494, #830, #153 ) ;
#12 = VECTOR ( 'NONE', #693, 1000.000000000000000 ) ;
#13 = DIRECTION ( 'NONE',  ( -1.000000000000000000, 0.000000000000000000, 4.875810610438394194E-16 ) ) ;
#14 = ORIENTED_EDGE ( 'NONE', *, *, #480, .F. ) ;
#15 = CARTESIAN_POINT ( 'NONE',  ( 39.04953443609771568, 1.000000000000000000, -5.514770865354867269 ) ) ;
#16 = ADVANCED_FACE ( 'NONE', ( #688 ), #341, .F. ) ;
#17 = LINE ( 'NONE', #273, #859 ) ;
#18 = PLANE ( 'NONE',  #203 ) ;
#19 = DIRECTION ( 'NONE',  ( -1.000000000000000000, 0.000000000000000000, 0.000000000000000000 ) ) ;
#20 = EDGE_CURVE ( 'NONE', #468, #587, #829, .T. ) ;
#21 = CARTESIAN_POINT ( 'NONE',  ( 6.750403311584462607, 1.000000000000000000, -37.40518294591988990 ) ) ;
#22 =( NAMED_UNIT ( * ) SI_UNIT ( $, .STERADIAN. ) SOLID_ANGLE_UNIT ( ) );
#23 = CARTESIAN_POINT ( 'NONE',  ( 29.90317519890833964, 1.000000000000000000, -45.42224441502437315 ) ) ;
#24 = CARTESIAN_POINT ( 'NONE',  ( 19.51425129874342801, 0.000000000000000000, -24.77976126965068815 ) ) ;
#25 = CARTESIAN_POINT ( 'NONE',  ( 35.43528592263349708, 0.000000000000000000, -42.74771066360812455 ) ) ;
#26 = MANIFOLD_SOLID_BREP ( '\X2\51f853f0\X0\-\X2\62c94f38\X0\2', #396 ) ;
#27 = CARTESIAN_POINT ( 'NONE',  ( 1.262783116304145192, 0.000000000000000000, -12.59207215334692975 ) ) ;
#28 = DIRECTION ( 'NONE',  ( 0.8962405783657104719, 0.000000000000000000, 0.4435682875169244532 ) ) ;
#29 = CARTESIAN_POINT ( 'NONE',  ( 10.88460420860729627, 0.000000000000000000, -11.65053417009911207 ) ) ;
#30 = ORIENTED_EDGE ( 'NONE', *, *, #115, .T. ) ;
#31 = CARTESIAN_POINT ( 'NONE',  ( 29.90317519890833964, 1.000000000000000000, -45.42224441502437315 ) ) ;
#32 = CARTESIAN_POINT ( 'NONE',  ( 6.750403311584462607, 1.000000000000000000, -37.40518294591988990 ) ) ;
#33 = ADVANCED_FACE ( 'NONE', ( #572 ), #18, .F. ) ;
#34 = DIRECTION ( 'NONE',  ( 0.6646245842071607512, 0.000000000000000000, 0.7471774635703748446 ) ) ;
#35 = ORIENTED_EDGE ( 'NONE', *, *, #193, .F. ) ;
#36 = FACE_OUTER_BOUND ( 'NONE', #623, .T. ) ;
#37 = ADVANCED_FACE ( 'NONE', ( #652 ), #788, .F. ) ;
#38 = DIRECTION ( 'NONE',  ( -0.000000000000000000, -1.000000000000000000, -0.000000000000000000 ) ) ;
#39 = VERTEX_POINT ( 'NONE', #584 ) ;
#40 = LINE ( 'NONE', #157, #98 ) ;
#41 = ORIENTED_EDGE ( 'NONE', *, *, #750, .T. ) ;
#42 = AXIS2_PLACEMENT_3D ( 'NONE', #506, #710, #235 ) ;
#43 =( NAMED_UNIT ( * ) SI_UNIT ( $, .STERADIAN. ) SOLID_ANGLE_UNIT ( ) );
#44 = ORIENTED_EDGE ( 'NONE', *, *, #640, .T. ) ;
#45 = EDGE_LOOP ( 'NONE', ( #78, #619 ) ) ;
#46 = DIRECTION ( 'NONE',  ( -0.000000000000000000, -1.000000000000000000, -0.000000000000000000 ) ) ;
#47 = ORIENTED_EDGE ( 'NONE', *, *, #614, .T. ) ;
#48 = ADVANCED_FACE ( 'NONE', ( #700 ), #637, .T. ) ;
#49 = B_SPLINE_CURVE_WITH_KNOTS ( 'NONE', 9,
 ( #348, #625, #555, #831, #352, #492, #766, #448, #650, #31 ),
 .UNSPECIFIED., .F., .F.,
 ( 10, 10 ),
 ( 0.000000000000000000, 1.000000000000000000 ),
 .UNSPECIFIED. ) ;
#50 = CARTESIAN_POINT ( 'NONE',  ( -0.8485614409742567865, 1.000000000000000000, -11.65053417009911207 ) ) ;
#51 = ORIENTED_EDGE ( 'NONE', *, *, #463, .F. ) ;
#52 = CARTESIAN_POINT ( 'NONE',  ( 17.70695240253572322, 0.000000000000000000, -37.77757748988359765 ) ) ;
#53 = ORIENTED_EDGE ( 'NONE', *, *, #589, .T. ) ;
#54 = EDGE_CURVE ( 'NONE', #509, #468, #566, .T. ) ;
#55 = CARTESIAN_POINT ( 'NONE',  ( 6.427104669941083870, 1.000000000000000000, -31.82022930167423169 ) ) ;
#56 = ORIENTED_EDGE ( 'NONE', *, *, #558, .T. ) ;
#57 = VECTOR ( 'NONE', #102, 1000.000000000000114 ) ;
#58 = CARTESIAN_POINT ( 'NONE',  ( 19.51425129874343156, -3.000000000000000000, -64.77976126965069170 ) ) ;
#59 = ORIENTED_EDGE ( 'NONE', *, *, #534, .F. ) ;
#60 = VECTOR ( 'NONE', #300, 1000.000000000000000 ) ;
#61 = PRODUCT_CONTEXT ( 'NONE', #662, 'mechanical' ) ;
#62 = VECTOR ( 'NONE', #358, 1000.000000000000000 ) ;
#63 = VECTOR ( 'NONE', #13, 1000.000000000000000 ) ;
#64 = DIRECTION ( 'NONE',  ( -0.8962405783657104719, 0.000000000000000000, -0.4435682875169240647 ) ) ;
#65 = ADVANCED_FACE ( 'NONE', ( #172 ), #560, .F. ) ;
#66 = CARTESIAN_POINT ( 'NONE',  ( 38.42216922683686420, 1.000000000000000000, -5.825267085049556037 ) ) ;
#67 = EDGE_CURVE ( 'NONE', #308, #485, #545, .T. ) ;
#68 = DIRECTION ( 'NONE',  ( 0.000000000000000000, 0.000000000000000000, 1.000000000000000000 ) ) ;
#69 = CARTESIAN_POINT ( 'NONE',  ( 19.51425129874342801, 0.000000000000000000, -24.77976126965068815 ) ) ;
#70 = ORIENTED_EDGE ( 'NONE', *, *, #799, .T. ) ;
#71 = AXIS2_PLACEMENT_3D ( 'NONE', #704, #90, #357 ) ;
#72 = CARTESIAN_POINT ( 'NONE',  ( 19.51425129874342801, -3.000000000000000000, -24.77976126965068815 ) ) ;
#73 = EDGE_CURVE ( 'NONE', #520, #738, #425, .T. ) ;
#74 = EDGE_CURVE ( 'NONE', #485, #308, #309, .T. ) ;
#75 = ORIENTED_EDGE ( 'NONE', *, *, #871, .T. ) ;
#76 = CARTESIAN_POINT ( 'NONE',  ( 1.440650879148764885, 0.000000000000000000, -45.42224441502436605 ) ) ;
#77 = FACE_OUTER_BOUND ( 'NONE', #184, .T. ) ;
#78 = ORIENTED_EDGE ( 'NONE', *, *, #67, .F. ) ;
#79 = FACE_OUTER_BOUND ( 'NONE', #45, .T. ) ;
#80 = VECTOR ( 'NONE', #842, 1000.000000000000000 ) ;
#81 = CARTESIAN_POINT ( 'NONE',  ( 41.51251694769090506, 1.000000000000000000, -30.70234746324758035 ) ) ;
#82 = EDGE_LOOP ( 'NONE', ( #377, #755, #438, #668 ) ) ;
#83 = CARTESIAN_POINT ( 'NONE',  ( 31.77586533465498420, 1.000000000000000000, -13.55237543710225268 ) ) ;
#84 = VECTOR ( 'NONE', #632, 1000.000000000000000 ) ;
#85 = CARTESIAN_POINT ( 'NONE',  ( 32.01728764868309440, 0.000000000000000000, -36.44760319640853652 ) ) ;
#86 = FILL_AREA_STYLE_COLOUR ( '', #622 ) ;
#87 = EDGE_CURVE ( 'NONE', #253, #487, #166, .T. ) ;
#88 = DIRECTION ( 'NONE',  ( 0.000000000000000000, 0.000000000000000000, -1.000000000000000000 ) ) ;
#89 = CARTESIAN_POINT ( 'NONE',  ( 19.51425129874342801, 0.000000000000000000, 15.22023873034931896 ) ) ;
#90 = DIRECTION ( 'NONE',  ( 0.000000000000000000, 1.000000000000000000, 0.000000000000000000 ) ) ;
#91 = CARTESIAN_POINT ( 'NONE',  ( 1.262783116304145192, 1.000000000000000000, -12.59207215334692975 ) ) ;
#92 = LINE ( 'NONE', #365, #171 ) ;
#93 = CARTESIAN_POINT ( 'NONE',  ( 30.02639503993476922, 0.000000000000000000, -32.22527401605268693 ) ) ;
#94 = CARTESIAN_POINT ( 'NONE',  ( 14.30493538722118885, 0.000000000000000000, -24.08613505627843310 ) ) ;
#95 = LINE ( 'NONE', #363, #787 ) ;
#96 = VECTOR ( 'NONE', #252, 1000.000000000000000 ) ;
#97 = CARTESIAN_POINT ( 'NONE',  ( 30.80938467140692794, 0.000000000000000000, -23.30953569921947732 ) ) ;
#98 = VECTOR ( 'NONE', #776, 1000.000000000000000 ) ;
#99 = ADVANCED_FACE ( 'NONE', ( #230 ), #851, .F. ) ;
#100 = CARTESIAN_POINT ( 'NONE',  ( 17.70695240253572322, 1.000000000000000000, -37.77757748988359765 ) ) ;
#101 = FACE_OUTER_BOUND ( 'NONE', #445, .T. ) ;
#102 = DIRECTION ( 'NONE',  ( -0.9133031029189601080, 0.000000000000000000, 0.4072805448319366528 ) ) ;
#103 = DIRECTION ( 'NONE',  ( -0.7471774635703748446, 0.000000000000000000, 0.6646245842071607512 ) ) ;
#104 = ORIENTED_EDGE ( 'NONE', *, *, #694, .T. ) ;
#105 = CARTESIAN_POINT ( 'NONE',  ( 1.440650879148764885, 1.000000000000000000, -45.42224441502436605 ) ) ;
#106 = CARTESIAN_POINT ( 'NONE',  ( 28.65655667270275586, 1.000000000000000000, -37.77757748988359765 ) ) ;
#107 =( NAMED_UNIT ( * ) PLANE_ANGLE_UNIT ( ) SI_UNIT ( $, .RADIAN. ) );
#108 = ORIENTED_EDGE ( 'NONE', *, *, #246, .F. ) ;
#109 = CARTESIAN_POINT ( 'NONE',  ( 29.82998834717564307, 0.000000000000000000, -24.08613505627843310 ) ) ;
#110 = VERTEX_POINT ( 'NONE', #94 ) ;
#111 = CARTESIAN_POINT ( 'NONE',  ( 32.24010339936408087, 1.000000000000000000, -33.01154977801223112 ) ) ;
#112 = DIRECTION ( 'NONE',  ( -0.000000000000000000, -1.000000000000000000, -0.000000000000000000 ) ) ;
#113 = EDGE_LOOP ( 'NONE', ( #53, #512, #207, #858, #489, #659, #763 ) ) ;
#114 = ORIENTED_EDGE ( 'NONE', *, *, #440, .F. ) ;
#115 = EDGE_CURVE ( 'NONE', #281, #315, #362, .T. ) ;
#116 = LINE ( 'NONE', #568, #208 ) ;
#117 = ORIENTED_EDGE ( 'NONE', *, *, #410, .T. ) ;
#118 = AXIS2_PLACEMENT_3D ( 'NONE', #66, #397, #64 ) ;
#119 = PLANE ( 'NONE',  #715 ) ;
#120 = EDGE_LOOP ( 'NONE', ( #302, #742, #575, #666, #10, #59, #14 ) ) ;
#121 = EDGE_CURVE ( 'NONE', #413, #509, #537, .T. ) ;
#122 = PLANE ( 'NONE',  #770 ) ;
#123 = VERTEX_POINT ( 'NONE', #254 ) ;
#124 = DIRECTION ( 'NONE',  ( 0.000000000000000000, 0.000000000000000000, 1.000000000000000000 ) ) ;
#125 = ORIENTED_EDGE ( 'NONE', *, *, #390, .T. ) ;
#126 = CARTESIAN_POINT ( 'NONE',  ( 17.70695240253572322, 0.000000000000000000, -37.77757748988359765 ) ) ;
#127 = VERTEX_POINT ( 'NONE', #261 ) ;
#128 = DIRECTION ( 'NONE',  ( 0.2651954753936625608, 0.000000000000000000, -0.9641946690532618991 ) ) ;
#129 = VECTOR ( 'NONE', #643, 1000.000000000000000 ) ;
#130 = AXIS2_PLACEMENT_3D ( 'NONE', #105, #373, #247 ) ;
#131 = LINE ( 'NONE', #745, #420 ) ;
#132 = PRODUCT_DEFINITION ( 'æœ', '', #289, #669 ) ;
#133 = DIRECTION ( 'NONE',  ( 1.000000000000000000, 0.000000000000000000, 0.000000000000000000 ) ) ;
#134 = ORIENTED_EDGE ( 'NONE', *, *, #73, .T. ) ;
#135 = ORIENTED_EDGE ( 'NONE', *, *, #226, .T. ) ;
#136 = ADVANCED_FACE ( 'NONE', ( #593 ), #813, .F. ) ;
#137 = CARTESIAN_POINT ( 'NONE',  ( 30.80938467140692794, 1.000000000000000000, -23.30953569921947732 ) ) ;
#138 = EDGE_LOOP ( 'NONE', ( #854, #524, #451, #592 ) ) ;
#139 = CARTESIAN_POINT ( 'NONE',  ( 1.440650879148764885, 1.000000000000000000, -45.42224441502436605 ) ) ;
#140 = EDGE_CURVE ( 'NONE', #485, #768, #735, .T. ) ;
#141 = CARTESIAN_POINT ( 'NONE',  ( 35.43528592263349708, 1.000000000000000000, -42.74771066360812455 ) ) ;
#142 = ORIENTED_EDGE ( 'NONE', *, *, #331, .F. ) ;
#143 = DIRECTION ( 'NONE',  ( 0.000000000000000000, -0.000000000000000000, -1.000000000000000000 ) ) ;
#144 = ORIENTED_EDGE ( 'NONE', *, *, #739, .T. ) ;
#145 = DIRECTION ( 'NONE',  ( -0.000000000000000000, -1.000000000000000000, -0.000000000000000000 ) ) ;
#146 = ORIENTED_EDGE ( 'NONE', *, *, #876, .F. ) ;
#147 = CARTESIAN_POINT ( 'NONE',  ( 6.750403311584462607, 1.000000000000000000, -37.40518294591988990 ) ) ;
#148 = ORIENTED_EDGE ( 'NONE', *, *, #115, .F. ) ;
#149 = CARTESIAN_POINT ( 'NONE',  ( 41.48810213294969174, 1.000000000000000000, -36.12750011487359103 ) ) ;
#150 = ADVANCED_FACE ( 'NONE', ( #472 ), #122, .F. ) ;
#151 = LINE ( 'NONE', #488, #63 ) ;
#152 = VECTOR ( 'NONE', #532, 1000.000000000000227 ) ;
#153 = DIRECTION ( 'NONE',  ( 1.000000000000000000, 0.000000000000000000, -0.000000000000000000 ) ) ;
#154 = CARTESIAN_POINT ( 'NONE',  ( 39.14865748404979229, 0.000000000000000000, -41.93005967710561066 ) ) ;
#155 = DIRECTION ( 'NONE',  ( 0.000000000000000000, 1.000000000000000000, 0.000000000000000000 ) ) ;
#156 = CARTESIAN_POINT ( 'NONE',  ( 26.17228478707281525, 1.000000000000000000, -16.30574677041156662 ) ) ;
#157 = CARTESIAN_POINT ( 'NONE',  ( 14.30493538722118885, 0.000000000000000000, -24.08613505627843310 ) ) ;
#158 = CARTESIAN_POINT ( 'NONE',  ( 11.26337671024335130, 1.000000000000000000, -32.62627464172461345 ) ) ;
#159 = B_SPLINE_CURVE_WITH_KNOTS ( 'NONE', 5,
 ( #416, #483, #85, #7, #93, #361 ),
 .UNSPECIFIED., .F., .F.,
 ( 6, 6 ),
 ( 0.000000000000000000, 1.000000000000000000 ),
 .UNSPECIFIED. ) ;
#160 = SURFACE_STYLE_USAGE ( .BOTH. , #778 ) ;
#161 = CARTESIAN_POINT ( 'NONE',  ( 1.440650879148764885, 1.000000000000000000, -45.42224441502436605 ) ) ;
#162 = EDGE_CURVE ( 'NONE', #801, #39, #407, .T. ) ;
#163 = CARTESIAN_POINT ( 'NONE',  ( 6.750403311584462607, 0.000000000000000000, -37.40518294591988990 ) ) ;
#164 = AXIS2_PLACEMENT_3D ( 'NONE', #846, #155, #301 ) ;
#165 = LINE ( 'NONE', #645, #351 ) ;
#166 = LINE ( 'NONE', #502, #565 ) ;
#167 = PLANE ( 'NONE',  #474 ) ;
#168 = VERTEX_POINT ( 'NONE', #746 ) ;
#169 = VECTOR ( 'NONE', #800, 1000.000000000000000 ) ;
#170 = CARTESIAN_POINT ( 'NONE',  ( 19.81449232173478592, 0.000000000000000000, -23.30953569921947732 ) ) ;
#171 = VECTOR ( 'NONE', #644, 999.9999999999998863 ) ;
#172 = FACE_OUTER_BOUND ( 'NONE', #82, .T. ) ;
#173 = CARTESIAN_POINT ( 'NONE',  ( 26.17228478707281525, 1.000000000000000000, -16.30574677041156662 ) ) ;
#174 = ORIENTED_EDGE ( 'NONE', *, *, #335, .T. ) ;
#175 = FACE_OUTER_BOUND ( 'NONE', #179, .T. ) ;
#176 = EDGE_CURVE ( 'NONE', #212, #188, #867, .T. ) ;
#177 = CARTESIAN_POINT ( 'NONE',  ( 22.28910681766330981, 1.000000000000000000, -32.62627464172461345 ) ) ;
#178 = ORIENTED_EDGE ( 'NONE', *, *, #589, .F. ) ;
#179 = EDGE_LOOP ( 'NONE', ( #556, #415, #311, #135 ) ) ;
#180 = DIRECTION ( 'NONE',  ( 0.000000000000000000, 0.000000000000000000, 1.000000000000000000 ) ) ;
#181 = ORIENTED_EDGE ( 'NONE', *, *, #67, .T. ) ;
#182 = CARTESIAN_POINT ( 'NONE',  ( 39.04953443609771568, 1.000000000000000000, -5.514770865354867269 ) ) ;
#183 = EDGE_CURVE ( 'NONE', #542, #110, #388, .T. ) ;
#184 = EDGE_LOOP ( 'NONE', ( #144, #218, #236, #174 ) ) ;
#185 = CARTESIAN_POINT ( 'NONE',  ( 17.70695240253572322, 1.000000000000000000, -37.77757748988359765 ) ) ;
#186 = ORIENTED_EDGE ( 'NONE', *, *, #214, .F. ) ;
#187 = VECTOR ( 'NONE', #133, 1000.000000000000000 ) ;
#188 = VERTEX_POINT ( 'NONE', #259 ) ;
#189 = CARTESIAN_POINT ( 'NONE',  ( 28.65655667270275586, 1.000000000000000000, -37.77757748988359765 ) ) ;
#190 = ORIENTED_EDGE ( 'NONE', *, *, #748, .T. ) ;
#191 = CARTESIAN_POINT ( 'NONE',  ( 10.88460420860729627, 1.000000000000000000, -11.65053417009911207 ) ) ;
#192 = CARTESIAN_POINT ( 'NONE',  ( 11.26337671024335130, 1.000000000000000000, -32.62627464172461345 ) ) ;
#193 = EDGE_CURVE ( 'NONE', #456, #395, #679, .T. ) ;
#194 = AXIS2_PLACEMENT_3D ( 'NONE', #8, #274, #552 ) ;
#195 = EDGE_LOOP ( 'NONE', ( #539, #51, #148, #656 ) ) ;
#196 = CARTESIAN_POINT ( 'NONE',  ( 17.24610358125002563, 1.000000000000000000, -16.30574677041156662 ) ) ;
#197 = VECTOR ( 'NONE', #845, 999.9999999999998863 ) ;
#198 = DIRECTION ( 'NONE',  ( -0.000000000000000000, -1.000000000000000000, -0.000000000000000000 ) ) ;
#199 = ORIENTED_EDGE ( 'NONE', *, *, #176, .F. ) ;
#200 = FACE_OUTER_BOUND ( 'NONE', #600, .T. ) ;
#201 = ADVANCED_FACE ( 'NONE', ( #529 ), #332, .F. ) ;
#202 = LINE ( 'NONE', #674, #672 ) ;
#203 = AXIS2_PLACEMENT_3D ( 'NONE', #243, #797, #422 ) ;
#204 = CARTESIAN_POINT ( 'NONE',  ( 17.70695240253572322, 1.000000000000000000, -37.77757748988359765 ) ) ;
#205 = ORIENTED_EDGE ( 'NONE', *, *, #258, .F. ) ;
#206 = AXIS2_PLACEMENT_3D ( 'NONE', #257, #596, #124 ) ;
#207 = ORIENTED_EDGE ( 'NONE', *, *, #440, .T. ) ;
#208 = VECTOR ( 'NONE', #791, 1000.000000000000114 ) ;
#209 = PLANE ( 'NONE',  #222 ) ;
#210 = ORIENTED_EDGE ( 'NONE', *, *, #750, .F. ) ;
#211 = LINE ( 'NONE', #762, #12 ) ;
#212 = VERTEX_POINT ( 'NONE', #126 ) ;
#213 = CARTESIAN_POINT ( 'NONE',  ( 10.88460420860729627, 1.000000000000000000, -11.65053417009911207 ) ) ;
#214 = EDGE_CURVE ( 'NONE', #39, #832, #610, .T. ) ;
#215 = VERTEX_POINT ( 'NONE', #196 ) ;
#216 = DIRECTION ( 'NONE',  ( 0.7270465671078062408, 0.000000000000000000, -0.6865881511188162145 ) ) ;
#217 = EDGE_CURVE ( 'NONE', #39, #3, #467, .T. ) ;
#218 = ORIENTED_EDGE ( 'NONE', *, *, #654, .F. ) ;
#219 = LINE ( 'NONE', #553, #364 ) ;
#220 = CARTESIAN_POINT ( 'NONE',  ( 34.31867247075327754, 1.000000000000000000, -25.16318899118316210 ) ) ;
#221 = CARTESIAN_POINT ( 'NONE',  ( 39.87706403846111414, 1.000000000000000000, -13.47905876581868512 ) ) ;
#222 = AXIS2_PLACEMENT_3D ( 'NONE', #269, #423, #272 ) ;
#223 = PLANE ( 'NONE',  #626 ) ;
#224 = CARTESIAN_POINT ( 'NONE',  ( 31.93648430266279803, 0.000000000000000000, -24.48256380030016999 ) ) ;
#225 = CARTESIAN_POINT ( 'NONE',  ( 22.28910681766330981, 1.000000000000000000, -32.62627464172461345 ) ) ;
#226 = EDGE_CURVE ( 'NONE', #389, #212, #804, .T. ) ;
#227 = CARTESIAN_POINT ( 'NONE',  ( 29.90317519890833964, 1.000000000000000000, -45.42224441502437315 ) ) ;
#228 = CARTESIAN_POINT ( 'NONE',  ( 19.51425129874343156, -3.000000000000000000, -64.77976126965069170 ) ) ;
#229 = DIRECTION ( 'NONE',  ( -1.000000000000000000, 0.000000000000000000, -0.000000000000000000 ) ) ;
#230 = FACE_OUTER_BOUND ( 'NONE', #195, .T. ) ;
#231 = FACE_OUTER_BOUND ( 'NONE', #803, .T. ) ;
#232 = VERTEX_POINT ( 'NONE', #673 ) ;
#233 =( GEOMETRIC_REPRESENTATION_CONTEXT ( 3 ) GLOBAL_UNCERTAINTY_ASSIGNED_CONTEXT ( ( #270 ) ) GLOBAL_UNIT_ASSIGNED_CONTEXT ( ( #647, #107, #22 ) ) REPRESENTATION_CONTEXT ( 'NONE', 'WORKASPACE' ) );
#234 = CARTESIAN_POINT ( 'NONE',  ( 28.65655667270275586, 0.000000000000000000, -37.77757748988359765 ) ) ;
#235 = DIRECTION ( 'NONE',  ( -1.000000000000000000, 0.000000000000000000, -0.000000000000000000 ) ) ;
#236 = ORIENTED_EDGE ( 'NONE', *, *, #773, .F. ) ;
#237 = CARTESIAN_POINT ( 'NONE',  ( 26.17228478707281525, 0.000000000000000000, -16.30574677041156662 ) ) ;
#238 = ORIENTED_EDGE ( 'NONE', *, *, #814, .T. ) ;
#239 = VECTOR ( 'NONE', #28, 999.9999999999998863 ) ;
#240 = PLANE ( 'NONE',  #241 ) ;
#241 = AXIS2_PLACEMENT_3D ( 'NONE', #100, #510, #229 ) ;
#242 = CARTESIAN_POINT ( 'NONE',  ( 39.87706403846112124, 0.000000000000000000, -13.47905876581868156 ) ) ;
#243 = CARTESIAN_POINT ( 'NONE',  ( 39.04953443609771568, 1.000000000000000000, -5.514770865354867269 ) ) ;
#244 = CARTESIAN_POINT ( 'NONE',  ( 34.02830528421466738, 0.000000000000000000, -45.04020359194090162 ) ) ;
#245 = ORIENTED_EDGE ( 'NONE', *, *, #496, .F. ) ;
#246 = EDGE_CURVE ( 'NONE', #349, #738, #749, .T. ) ;
#247 = DIRECTION ( 'NONE',  ( -0.5521810349673796914, 0.000000000000000000, -0.8337242377563179874 ) ) ;
#248 = ORIENTED_EDGE ( 'NONE', *, *, #871, .F. ) ;
#249 = EDGE_LOOP ( 'NONE', ( #864, #591, #264, #671 ) ) ;
#250 = CARTESIAN_POINT ( 'NONE',  ( 32.24010339936408087, 1.000000000000000000, -33.01154977801223112 ) ) ;
#251 = ORIENTED_EDGE ( 'NONE', *, *, #640, .F. ) ;
#252 = DIRECTION ( 'NONE',  ( -0.000000000000000000, -1.000000000000000000, -0.000000000000000000 ) ) ;
#253 = VERTEX_POINT ( 'NONE', #192 ) ;
#254 = CARTESIAN_POINT ( 'NONE',  ( 22.28910681766330981, 0.000000000000000000, -32.62627464172461345 ) ) ;
#255 = VERTEX_POINT ( 'NONE', #470 ) ;
#256 = VECTOR ( 'NONE', #406, 1000.000000000000000 ) ;
#257 = CARTESIAN_POINT ( 'NONE',  ( 19.51425129874342801, -3.000000000000000000, -24.77976126965068815 ) ) ;
#258 = EDGE_CURVE ( 'NONE', #587, #110, #131, .T. ) ;
#259 = CARTESIAN_POINT ( 'NONE',  ( 28.65655667270275586, 0.000000000000000000, -37.77757748988359765 ) ) ;
#260 = DIRECTION ( 'NONE',  ( 4.875810610438394194E-16, -0.000000000000000000, 1.000000000000000000 ) ) ;
#261 = CARTESIAN_POINT ( 'NONE',  ( 29.90317519890833964, 0.000000000000000000, -45.42224441502437315 ) ) ;
#262 = EDGE_CURVE ( 'NONE', #542, #307, #607, .T. ) ;
#263 = VECTOR ( 'NONE', #540, 1000.000000000000000 ) ;
#264 = ORIENTED_EDGE ( 'NONE', *, *, #680, .F. ) ;
#265 = PLANE ( 'NONE',  #11 ) ;
#266 = ADVANCED_FACE ( 'NONE', ( #692 ), #617, .F. ) ;
#267 = APPLICATION_CONTEXT ( 'automotive_design' ) ;
#268 = ORIENTED_EDGE ( 'NONE', *, *, #20, .F. ) ;
#269 = CARTESIAN_POINT ( 'NONE',  ( 0.000000000000000000, 1.000000000000000000, 0.000000000000000000 ) ) ;
#270 = UNCERTAINTY_MEASURE_WITH_UNIT (LENGTH_MEASURE( 1.000000000000000082E-05 ), #647, 'distance_accuracy_value', 'NONE');
#271 = ORIENTED_EDGE ( 'NONE', *, *, #162, .F. ) ;
#272 = DIRECTION ( 'NONE',  ( 0.000000000000000000, -0.000000000000000000, -1.000000000000000000 ) ) ;
#273 = CARTESIAN_POINT ( 'NONE',  ( 30.80938467140692794, 1.000000000000000000, -23.30953569921947732 ) ) ;
#274 = DIRECTION ( 'NONE',  ( 0.9657730640239359232, -0.000000000000000000, 0.2593884901182367253 ) ) ;
#275 = CIRCLE ( 'NONE', #550, 40.00000000000000711 ) ;
#276 = ADVANCED_FACE ( 'NONE', ( #879 ), #209, .F. ) ;
#277 = DIRECTION ( 'NONE',  ( 0.000000000000000000, -0.000000000000000000, 1.000000000000000000 ) ) ;
#278 = ORIENTED_EDGE ( 'NONE', *, *, #410, .F. ) ;
#279 = VECTOR ( 'NONE', #442, 1000.000000000000000 ) ;
#280 = CARTESIAN_POINT ( 'NONE',  ( 29.82998834717564307, 1.000000000000000000, -24.08613505627843310 ) ) ;
#281 = VERTEX_POINT ( 'NONE', #486 ) ;
#282 = PLANE ( 'NONE',  #459 ) ;
#283 = DIRECTION ( 'NONE',  ( -0.000000000000000000, -1.000000000000000000, -0.000000000000000000 ) ) ;
#284 = DIRECTION ( 'NONE',  ( 0.000000000000000000, 0.000000000000000000, 1.000000000000000000 ) ) ;
#285 = CARTESIAN_POINT ( 'NONE',  ( 19.81449232173478592, 0.000000000000000000, -23.30953569921947732 ) ) ;
#286 = ADVANCED_FACE ( 'NONE', ( #418 ), #478, .F. ) ;
#287 = CARTESIAN_POINT ( 'NONE',  ( 41.48810213294969174, 0.000000000000000000, -36.12750011487359103 ) ) ;
#288 = CARTESIAN_POINT ( 'NONE',  ( 1.262783116304145192, 1.000000000000000000, -12.59207215334692975 ) ) ;
#289 = PRODUCT_DEFINITION_FORMATION_WITH_SPECIFIED_SOURCE ( 'ä»', '', #767, .NOT_KNOWN. ) ;
#290 = VECTOR ( 'NONE', #604, 1000.000000000000000 ) ;
#291 = DIRECTION ( 'NONE',  ( -0.000000000000000000, -1.000000000000000000, -0.000000000000000000 ) ) ;
#292 = DIRECTION ( 'NONE',  ( 0.000000000000000000, 0.000000000000000000, 1.000000000000000000 ) ) ;
#293 = CARTESIAN_POINT ( 'NONE',  ( 31.93648430266279803, 0.000000000000000000, -24.48256380030016999 ) ) ;
#294 = EDGE_CURVE ( 'NONE', #808, #868, #543, .T. ) ;
#295 = DIRECTION ( 'NONE',  ( -0.7350496193186233373, 0.000000000000000000, 0.6780133163438215593 ) ) ;
#296 = CARTESIAN_POINT ( 'NONE',  ( 1.262783116304145192, 1.000000000000000000, -12.59207215334692975 ) ) ;
#297 = CARTESIAN_POINT ( 'NONE',  ( 41.51251694769090506, 0.000000000000000000, -30.70234746324758035 ) ) ;
#298 = ORIENTED_EDGE ( 'NONE', *, *, #226, .F. ) ;
#299 = CARTESIAN_POINT ( 'NONE',  ( 30.14094448505370849, 1.000000000000000000, -37.46786479163201022 ) ) ;
#300 = DIRECTION ( 'NONE',  ( -1.000000000000000000, 0.000000000000000000, 4.875810610438394194E-16 ) ) ;
#301 = DIRECTION ( 'NONE',  ( 0.000000000000000000, 0.000000000000000000, 1.000000000000000000 ) ) ;
#302 = ORIENTED_EDGE ( 'NONE', *, *, #455, .F. ) ;
#303 = PLANE ( 'NONE',  #699 ) ;
#304 = ORIENTED_EDGE ( 'NONE', *, *, #74, .T. ) ;
#305 = CARTESIAN_POINT ( 'NONE',  ( 30.14094448505370849, 0.000000000000000000, -37.46786479163201022 ) ) ;
#306 = LINE ( 'NONE', #55, #678 ) ;
#307 = VERTEX_POINT ( 'NONE', #764 ) ;
#308 = VERTEX_POINT ( 'NONE', #752 ) ;
#309 = CIRCLE ( 'NONE', #71, 40.00000000000000711 ) ;
#310 = CARTESIAN_POINT ( 'NONE',  ( 35.43528592263349708, 0.000000000000000000, -42.74771066360812455 ) ) ;
#311 = ORIENTED_EDGE ( 'NONE', *, *, #2, .F. ) ;
#312 = AXIS2_PLACEMENT_3D ( 'NONE', #21, #216, #840 ) ;
#313 = DIRECTION ( 'NONE',  ( -0.000000000000000000, -1.000000000000000000, -0.000000000000000000 ) ) ;
#314 = EDGE_LOOP ( 'NONE', ( #380, #417 ) ) ;
#315 = VERTEX_POINT ( 'NONE', #213 ) ;
#316 = CARTESIAN_POINT ( 'NONE',  ( 14.30493538722118885, 1.000000000000000000, -24.08613505627843310 ) ) ;
#317 = ORIENTED_EDGE ( 'NONE', *, *, #457, .F. ) ;
#318 = DIRECTION ( 'NONE',  ( -0.000000000000000000, -1.000000000000000000, -0.000000000000000000 ) ) ;
#319 = ORIENTED_EDGE ( 'NONE', *, *, #661, .T. ) ;
#320 = DIRECTION ( 'NONE',  ( 1.000000000000000000, 0.000000000000000000, -4.875810610438394194E-16 ) ) ;
#321 = ORIENTED_EDGE ( 'NONE', *, *, #605, .T. ) ;
#322 = EDGE_CURVE ( 'NONE', #609, #349, #350, .T. ) ;
#323 = ADVANCED_FACE ( 'NONE', ( #630, #819, #769 ), #282, .T. ) ;
#324 = LINE ( 'NONE', #177, #279 ) ;
#325 = ORIENTED_EDGE ( 'NONE', *, *, #779, .T. ) ;
#326 = CARTESIAN_POINT ( 'NONE',  ( 14.30493538722118885, 1.000000000000000000, -24.08613505627843310 ) ) ;
#327 = VECTOR ( 'NONE', #19, 1000.000000000000000 ) ;
#328 = APPLICATION_PROTOCOL_DEFINITION ( 'draft international standard', 'automotive_design', 1998, #662 ) ;
#329 = VECTOR ( 'NONE', #828, 1000.000000000000114 ) ;
#330 = DIRECTION ( 'NONE',  ( -1.000000000000000000, 0.000000000000000000, 0.000000000000000000 ) ) ;
#331 = EDGE_CURVE ( 'NONE', #308, #616, #481, .T. ) ;
#332 = PLANE ( 'NONE',  #839 ) ;
#333 = VERTEX_POINT ( 'NONE', #147 ) ;
#334 = DIRECTION ( 'NONE',  ( -0.000000000000000000, -1.000000000000000000, -0.000000000000000000 ) ) ;
#335 = EDGE_CURVE ( 'NONE', #333, #554, #219, .T. ) ;
#336 = VECTOR ( 'NONE', #402, 1000.000000000000000 ) ;
#337 = ORIENTED_EDGE ( 'NONE', *, *, #426, .F. ) ;
#338 = DIRECTION ( 'NONE',  ( 0.000000000000000000, 1.000000000000000000, 0.000000000000000000 ) ) ;
#339 = ORIENTED_EDGE ( 'NONE', *, *, #685, .F. ) ;
#340 = APPLICATION_PROTOCOL_DEFINITION ( 'draft international standard', 'automotive_design', 1998, #267 ) ;
#341 = PLANE ( 'NONE',  #194 ) ;
#342 = CARTESIAN_POINT ( 'NONE',  ( 31.77586533465498420, 1.000000000000000000, -13.55237543710225268 ) ) ;
#343 = PLANE ( 'NONE',  #312 ) ;
#344 = ADVANCED_FACE ( 'NONE', ( #200 ), #265, .F. ) ;
#345 = EDGE_LOOP ( 'NONE', ( #765, #479, #337, #325 ) ) ;
#346 = PRESENTATION_LAYER_ASSIGNMENT (  '', '', ( #744 ) ) ;
#347 = CARTESIAN_POINT ( 'NONE',  ( 19.51425129874342801, -3.000000000000000000, 15.22023873034931896 ) ) ;
#348 = CARTESIAN_POINT ( 'NONE',  ( 29.82998834717564307, 1.000000000000000000, -24.08613505627843310 ) ) ;
#349 = VERTEX_POINT ( 'NONE', #342 ) ;
#350 = LINE ( 'NONE', #15, #263 ) ;
#351 = VECTOR ( 'NONE', #366, 1000.000000000000114 ) ;
#352 = CARTESIAN_POINT ( 'NONE',  ( 41.51251694769090506, 1.000000000000000000, -30.70234746324758035 ) ) ;
#353 = CARTESIAN_POINT ( 'NONE',  ( 19.51425129874342801, -3.000000000000000000, -24.77976126965068815 ) ) ;
#354 = CARTESIAN_POINT ( 'NONE',  ( 17.24610358125002563, 1.000000000000000000, -16.30574677041156662 ) ) ;
#355 = ORIENTED_EDGE ( 'NONE', *, *, #193, .T. ) ;
#356 = LINE ( 'NONE', #495, #84 ) ;
#357 = DIRECTION ( 'NONE',  ( 0.000000000000000000, 0.000000000000000000, 1.000000000000000000 ) ) ;
#358 = DIRECTION ( 'NONE',  ( -1.000000000000000000, 0.000000000000000000, 0.000000000000000000 ) ) ;
#359 = EDGE_CURVE ( 'NONE', #528, #740, #684, .T. ) ;
#360 = CARTESIAN_POINT ( 'NONE',  ( 22.28910681766330981, 1.000000000000000000, -32.62627464172461345 ) ) ;
#361 = CARTESIAN_POINT ( 'NONE',  ( 28.81088525483565022, 0.000000000000000000, -31.82022930167423169 ) ) ;
#362 = LINE ( 'NONE', #783, #187 ) ;
#363 = CARTESIAN_POINT ( 'NONE',  ( 10.88460420860729627, 1.000000000000000000, -11.65053417009911207 ) ) ;
#364 = VECTOR ( 'NONE', #689, 1000.000000000000000 ) ;
#365 = CARTESIAN_POINT ( 'NONE',  ( 22.28910681766330981, 0.000000000000000000, -32.62627464172461345 ) ) ;
#366 = DIRECTION ( 'NONE',  ( 0.6865881511188161035, 0.000000000000000000, 0.7270465671078061298 ) ) ;
#367 = CARTESIAN_POINT ( 'NONE',  ( 11.26337671024335130, 0.000000000000000000, -32.62627464172461345 ) ) ;
#368 = DIRECTION ( 'NONE',  ( 0.4072805448319367083, -0.000000000000000000, 0.9133031029189602190 ) ) ;
#369 = B_SPLINE_SURFACE_WITH_KNOTS ( 'NONE', 5, 1, ( 
 ( #582, #234 ),
 ( #299, #305 ),
 ( #714, #782 ),
 ( #111, #372 ),
 ( #505, #433 ),
 ( #517, #786 ) ),
 .UNSPECIFIED., .F., .F., .F.,
 ( 6, 6 ),
 ( 2, 2 ),
 ( 0.000000000000000000, 1.000000000000000000 ),
 ( 0.000000000000000000, 1.000000000000000000 ),
 .UNSPECIFIED. ) ;
#370 = DIRECTION ( 'NONE',  ( 0.6721349868234076652, 0.000000000000000000, 0.7404286322718062197 ) ) ;
#371 = ORIENTED_EDGE ( 'NONE', *, *, #475, .F. ) ;
#372 = CARTESIAN_POINT ( 'NONE',  ( 32.24010339936408087, 0.000000000000000000, -33.01154977801223112 ) ) ;
#373 = DIRECTION ( 'NONE',  ( 0.8337242377563179874, 0.000000000000000000, -0.5521810349673796914 ) ) ;
#374 = ADVANCED_FACE ( 'NONE', ( #79 ), #696, .F. ) ;
#375 = PRESENTATION_STYLE_ASSIGNMENT (( #160 ) ) ;
#376 = LINE ( 'NONE', #639, #484 ) ;
#377 = ORIENTED_EDGE ( 'NONE', *, *, #618, .T. ) ;
#378 = PLANE ( 'NONE',  #827 ) ;
#379 =( LENGTH_UNIT ( ) NAMED_UNIT ( * ) SI_UNIT ( .MILLI., .METRE. ) );
#380 = ORIENTED_EDGE ( 'NONE', *, *, #521, .T. ) ;
#381 = ORIENTED_EDGE ( 'NONE', *, *, #359, .F. ) ;
#382 = ORIENTED_EDGE ( 'NONE', *, *, #654, .T. ) ;
#383 = VECTOR ( 'NONE', #612, 1000.000000000000000 ) ;
#384 = CARTESIAN_POINT ( 'NONE',  ( 14.30493538722118885, 1.000000000000000000, -24.08613505627843310 ) ) ;
#385 = EDGE_LOOP ( 'NONE', ( #702, #691, #822, #866 ) ) ;
#386 = DIRECTION ( 'NONE',  ( -0.9641946690532620101, 0.000000000000000000, -0.2651954753936626163 ) ) ;
#387 = ORIENTED_EDGE ( 'NONE', *, *, #480, .T. ) ;
#388 = LINE ( 'NONE', #326, #878 ) ;
#389 = VERTEX_POINT ( 'NONE', #204 ) ;
#390 = EDGE_CURVE ( 'NONE', #456, #333, #754, .T. ) ;
#391 = DIRECTION ( 'NONE',  ( -0.2651954753936625608, 0.000000000000000000, 0.9641946690532618991 ) ) ;
#392 = ORIENTED_EDGE ( 'NONE', *, *, #739, .F. ) ;
#393 = PRODUCT_RELATED_PRODUCT_CATEGORY ( 'part', '', ( #767 ) ) ;
#394 = DIRECTION ( 'NONE',  ( -0.000000000000000000, -1.000000000000000000, -0.000000000000000000 ) ) ;
#395 = VERTEX_POINT ( 'NONE', #76 ) ;
#396 = CLOSED_SHELL ( 'NONE', ( #48, #323, #817, #374, #834, #150, #629, #201, #743, #631, #421, #595, #712, #705, #344, #16, #37, #99, #401, #266, #707, #541, #136, #33, #286, #65, #276 ) ) ;
#397 = DIRECTION ( 'NONE',  ( 0.4435682875169241202, 0.000000000000000000, -0.8962405783657105829 ) ) ;
#398 = CIRCLE ( 'NONE', #399, 40.00000000000000711 ) ;
#399 = AXIS2_PLACEMENT_3D ( 'NONE', #838, #708, #180 ) ;
#400 = CARTESIAN_POINT ( 'NONE',  ( 30.14094448505370849, 1.000000000000000000, -37.46786479163201022 ) ) ;
#401 = ADVANCED_FACE ( 'NONE', ( #620 ), #4, .F. ) ;
#402 = DIRECTION ( 'NONE',  ( 0.000000000000000000, 1.000000000000000000, 0.000000000000000000 ) ) ;
#403 = ORIENTED_EDGE ( 'NONE', *, *, #527, .T. ) ;
#404 = B_SPLINE_CURVE_WITH_KNOTS ( 'NONE', 9,
 ( #109, #224, #860, #655, #297, #446, #713, #310, #244, #730 ),
 .UNSPECIFIED., .F., .F.,
 ( 10, 10 ),
 ( 0.000000000000000000, 1.000000000000000000 ),
 .UNSPECIFIED. ) ;
#405 = ORIENTED_EDGE ( 'NONE', *, *, #558, .F. ) ;
#406 = DIRECTION ( 'NONE',  ( 0.000000000000000000, 1.000000000000000000, 0.000000000000000000 ) ) ;
#407 = B_SPLINE_CURVE_WITH_KNOTS ( 'NONE', 5,
 ( #189, #400, #741, #250, #816, #812 ),
 .UNSPECIFIED., .F., .F.,
 ( 6, 6 ),
 ( 0.000000000000000000, 1.000000000000000000 ),
 .UNSPECIFIED. ) ;
#408 = CARTESIAN_POINT ( 'NONE',  ( 28.81088525483565022, 0.000000000000000000, -31.82022930167423169 ) ) ;
#409 = DIRECTION ( 'NONE',  ( 0.5521810349673796914, 0.000000000000000000, 0.8337242377563179874 ) ) ;
#410 = EDGE_CURVE ( 'NONE', #450, #127, #414, .T. ) ;
#411 = EDGE_CURVE ( 'NONE', #790, #281, #638, .T. ) ;
#412 = LINE ( 'NONE', #549, #197 ) ;
#413 = VERTEX_POINT ( 'NONE', #847 ) ;
#414 = LINE ( 'NONE', #227, #129 ) ;
#415 = ORIENTED_EDGE ( 'NONE', *, *, #761, .F. ) ;
#416 = CARTESIAN_POINT ( 'NONE',  ( 28.65655667270275586, 0.000000000000000000, -37.77757748988359765 ) ) ;
#417 = ORIENTED_EDGE ( 'NONE', *, *, #536, .T. ) ;
#418 = FACE_OUTER_BOUND ( 'NONE', #444, .T. ) ;
#419 = FACE_OUTER_BOUND ( 'NONE', #594, .T. ) ;
#420 = VECTOR ( 'NONE', #128, 1000.000000000000114 ) ;
#421 = ADVANCED_FACE ( 'NONE', ( #780 ), #223, .F. ) ;
#422 = DIRECTION ( 'NONE',  ( 0.6709919794848187014, 0.000000000000000000, 0.7414646070225096031 ) ) ;
#423 = DIRECTION ( 'NONE',  ( 0.000000000000000000, -1.000000000000000000, 0.000000000000000000 ) ) ;
#424 = CARTESIAN_POINT ( 'NONE',  ( 41.51251694769090506, 0.000000000000000000, -30.70234746324758035 ) ) ;
#425 = LINE ( 'NONE', #722, #507 ) ;
#426 = EDGE_CURVE ( 'NONE', #215, #609, #701, .T. ) ;
#427 = CARTESIAN_POINT ( 'NONE',  ( 11.26337671024335130, 1.000000000000000000, -32.62627464172461345 ) ) ;
#428 = CARTESIAN_POINT ( 'NONE',  ( 29.82998834717564307, 1.000000000000000000, -24.08613505627843310 ) ) ;
#429 = CARTESIAN_POINT ( 'NONE',  ( 36.89931015396237513, 1.000000000000000000, -26.29189786628414893 ) ) ;
#430 = DIRECTION ( 'NONE',  ( 1.000000000000000000, 0.000000000000000000, 0.000000000000000000 ) ) ;
#431 = CARTESIAN_POINT ( 'NONE',  ( -0.8485614409742567865, 0.000000000000000000, -11.65053417009911207 ) ) ;
#432 = LINE ( 'NONE', #237, #872 ) ;
#433 = CARTESIAN_POINT ( 'NONE',  ( 30.02639503993476922, 0.000000000000000000, -32.22527401605268693 ) ) ;
#434 = SURFACE_STYLE_FILL_AREA ( #857 ) ;
#435 = VECTOR ( 'NONE', #313, 1000.000000000000000 ) ;
#436 = VECTOR ( 'NONE', #409, 1000.000000000000000 ) ;
#437 = DIRECTION ( 'NONE',  ( 0.000000000000000000, -0.000000000000000000, 1.000000000000000000 ) ) ;
#438 = ORIENTED_EDGE ( 'NONE', *, *, #793, .F. ) ;
#439 = VECTOR ( 'NONE', #848, 1000.000000000000000 ) ;
#440 = EDGE_CURVE ( 'NONE', #168, #215, #634, .T. ) ;
#441 = FACE_OUTER_BOUND ( 'NONE', #880, .T. ) ;
#442 = DIRECTION ( 'NONE',  ( -0.000000000000000000, -1.000000000000000000, -0.000000000000000000 ) ) ;
#443 = CARTESIAN_POINT ( 'NONE',  ( -0.8485614409742567865, 0.000000000000000000, -11.65053417009911207 ) ) ;
#444 = EDGE_LOOP ( 'NONE', ( #877, #615, #371, #547 ) ) ;
#445 = EDGE_LOOP ( 'NONE', ( #695, #304, #683, #585 ) ) ;
#446 = CARTESIAN_POINT ( 'NONE',  ( 41.48810213294969174, 0.000000000000000000, -36.12750011487359103 ) ) ;
#447 = ORIENTED_EDGE ( 'NONE', *, *, #54, .T. ) ;
#448 = CARTESIAN_POINT ( 'NONE',  ( 35.43528592263349708, 1.000000000000000000, -42.74771066360812455 ) ) ;
#449 = DIRECTION ( 'NONE',  ( 0.6865881511188161035, 0.000000000000000000, 0.7270465671078061298 ) ) ;
#450 = VERTEX_POINT ( 'NONE', #23 ) ;
#451 = ORIENTED_EDGE ( 'NONE', *, *, #262, .F. ) ;
#452 = LINE ( 'NONE', #97, #551 ) ;
#453 = ORIENTED_EDGE ( 'NONE', *, *, #87, .F. ) ;
#454 = CARTESIAN_POINT ( 'NONE',  ( 17.24610358125002563, 1.000000000000000000, -16.30574677041156662 ) ) ;
#455 = EDGE_CURVE ( 'NONE', #740, #232, #499, .T. ) ;
#456 = VERTEX_POINT ( 'NONE', #161 ) ;
#457 = EDGE_CURVE ( 'NONE', #832, #413, #706, .T. ) ;
#458 =( GEOMETRIC_REPRESENTATION_CONTEXT ( 3 ) GLOBAL_UNCERTAINTY_ASSIGNED_CONTEXT ( ( #682 ) ) GLOBAL_UNIT_ASSIGNED_CONTEXT ( ( #379, #807, #43 ) ) REPRESENTATION_CONTEXT ( 'NONE', 'WORKASPACE' ) );
#459 = AXIS2_PLACEMENT_3D ( 'NONE', #69, #548, #277 ) ;
#460 = CARTESIAN_POINT ( 'NONE',  ( 31.77586533465498420, 1.000000000000000000, -13.55237543710225268 ) ) ;
#461 = EDGE_LOOP ( 'NONE', ( #387, #606, #114, #723 ) ) ;
#462 = LINE ( 'NONE', #577, #482 ) ;
#463 = EDGE_CURVE ( 'NONE', #315, #587, #95, .T. ) ;
#464 = ORIENTED_EDGE ( 'NONE', *, *, #694, .F. ) ;
#465 = EDGE_CURVE ( 'NONE', #3, #413, #837, .T. ) ;
#466 = EDGE_LOOP ( 'NONE', ( #835, #736, #104, #75, #125, #785, #820, #44, #515, #818, #687, #190, #810, #30 ) ) ;
#467 = LINE ( 'NONE', #525, #538 ) ;
#468 = VERTEX_POINT ( 'NONE', #431 ) ;
#469 = CARTESIAN_POINT ( 'NONE',  ( 29.90317519890833964, 1.000000000000000000, -45.42224441502437315 ) ) ;
#470 = CARTESIAN_POINT ( 'NONE',  ( 29.82998834717564307, 0.000000000000000000, -24.08613505627843310 ) ) ;
#471 = ADVANCED_BREP_SHAPE_REPRESENTATION ( 'RM\X2\54688fb9\X0\', ( #26, #564 ), #458 ) ;
#472 = FACE_OUTER_BOUND ( 'NONE', #138, .T. ) ;
#473 = EDGE_CURVE ( 'NONE', #790, #509, #843, .T. ) ;
#474 = AXIS2_PLACEMENT_3D ( 'NONE', #648, #103, #34 ) ;
#475 = EDGE_CURVE ( 'NONE', #349, #808, #376, .T. ) ;
#476 = DIRECTION ( 'NONE',  ( 0.000000000000000000, 0.000000000000000000, -1.000000000000000000 ) ) ;
#477 = ORIENTED_EDGE ( 'NONE', *, *, #473, .F. ) ;
#478 = PLANE ( 'NONE',  #734 ) ;
#479 = ORIENTED_EDGE ( 'NONE', *, *, #814, .F. ) ;
#480 = EDGE_CURVE ( 'NONE', #232, #526, #432, .T. ) ;
#481 = LINE ( 'NONE', #347, #256 ) ;
#482 = VECTOR ( 'NONE', #522, 999.9999999999998863 ) ;
#483 = CARTESIAN_POINT ( 'NONE',  ( 30.14094448505370849, 0.000000000000000000, -37.46786479163201022 ) ) ;
#484 = VECTOR ( 'NONE', #580, 1000.000000000000000 ) ;
#485 = VERTEX_POINT ( 'NONE', #228 ) ;
#486 = CARTESIAN_POINT ( 'NONE',  ( -0.8485614409742567865, 1.000000000000000000, -11.65053417009911207 ) ) ;
#487 = VERTEX_POINT ( 'NONE', #360 ) ;
#488 = CARTESIAN_POINT ( 'NONE',  ( 29.90317519890833964, 0.000000000000000000, -45.42224441502437315 ) ) ;
#489 = ORIENTED_EDGE ( 'NONE', *, *, #322, .T. ) ;
#490 = CARTESIAN_POINT ( 'NONE',  ( 19.81449232173478592, 1.000000000000000000, -23.30953569921947732 ) ) ;
#491 = ORIENTED_EDGE ( 'NONE', *, *, #54, .F. ) ;
#492 = CARTESIAN_POINT ( 'NONE',  ( 41.48810213294969174, 1.000000000000000000, -36.12750011487359103 ) ) ;
#493 = ORIENTED_EDGE ( 'NONE', *, *, #411, .F. ) ;
#494 = CARTESIAN_POINT ( 'NONE',  ( 28.81088525483565022, 1.000000000000000000, -31.82022930167423169 ) ) ;
#495 = CARTESIAN_POINT ( 'NONE',  ( 31.77586533465498420, 0.000000000000000000, -13.55237543710225268 ) ) ;
#496 = EDGE_CURVE ( 'NONE', #110, #255, #40, .T. ) ;
#497 = VECTOR ( 'NONE', #330, 1000.000000000000000 ) ;
#498 = DIRECTION ( 'NONE',  ( 0.9133031029189601080, 0.000000000000000000, -0.4072805448319366528 ) ) ;
#499 = LINE ( 'NONE', #285, #642 ) ;
#500 = DIRECTION ( 'NONE',  ( -1.000000000000000000, 0.000000000000000000, 0.000000000000000000 ) ) ;
#501 = LINE ( 'NONE', #225, #588 ) ;
#502 = CARTESIAN_POINT ( 'NONE',  ( 11.26337671024335130, 1.000000000000000000, -32.62627464172461345 ) ) ;
#503 = DIRECTION ( 'NONE',  ( -1.000000000000000000, 0.000000000000000000, -0.000000000000000000 ) ) ;
#504 = LINE ( 'NONE', #428, #169 ) ;
#505 = CARTESIAN_POINT ( 'NONE',  ( 30.02639503993476922, 1.000000000000000000, -32.22527401605268693 ) ) ;
#506 = CARTESIAN_POINT ( 'NONE',  ( -0.8485614409742567865, 1.000000000000000000, -11.65053417009911207 ) ) ;
#507 = VECTOR ( 'NONE', #578, 1000.000000000000000 ) ;
#508 = LINE ( 'NONE', #844, #516 ) ;
#509 = VERTEX_POINT ( 'NONE', #519 ) ;
#510 = DIRECTION ( 'NONE',  ( 0.000000000000000000, 0.000000000000000000, -1.000000000000000000 ) ) ;
#511 = CARTESIAN_POINT ( 'NONE',  ( 26.17228478707281525, 1.000000000000000000, -16.30574677041156662 ) ) ;
#512 = ORIENTED_EDGE ( 'NONE', *, *, #546, .T. ) ;
#513 = AXIS2_PLACEMENT_3D ( 'NONE', #825, #759, #143 ) ;
#514 = CARTESIAN_POINT ( 'NONE',  ( 30.80938467140692794, 0.000000000000000000, -23.30953569921947732 ) ) ;
#515 = ORIENTED_EDGE ( 'NONE', *, *, #2, .T. ) ;
#516 = VECTOR ( 'NONE', #370, 1000.000000000000000 ) ;
#517 = CARTESIAN_POINT ( 'NONE',  ( 28.81088525483565022, 1.000000000000000000, -31.82022930167423169 ) ) ;
#518 = DIRECTION ( 'NONE',  ( 1.000000000000000000, 0.000000000000000000, 0.000000000000000000 ) ) ;
#519 = CARTESIAN_POINT ( 'NONE',  ( 1.262783116304145192, 0.000000000000000000, -12.59207215334692975 ) ) ;
#520 = VERTEX_POINT ( 'NONE', #853 ) ;
#521 = EDGE_CURVE ( 'NONE', #616, #768, #275, .T. ) ;
#522 = DIRECTION ( 'NONE',  ( -0.6780133163438216704, 0.000000000000000000, -0.7350496193186232263 ) ) ;
#523 = ORIENTED_EDGE ( 'NONE', *, *, #390, .F. ) ;
#524 = ORIENTED_EDGE ( 'NONE', *, *, #527, .F. ) ;
#525 = CARTESIAN_POINT ( 'NONE',  ( 28.81088525483565022, 1.000000000000000000, -31.82022930167423169 ) ) ;
#526 = VERTEX_POINT ( 'NONE', #724 ) ;
#527 = EDGE_CURVE ( 'NONE', #307, #255, #504, .T. ) ;
#528 = VERTEX_POINT ( 'NONE', #562 ) ;
#529 = FACE_OUTER_BOUND ( 'NONE', #805, .T. ) ;
#530 = VERTEX_POINT ( 'NONE', #514 ) ;
#531 = CARTESIAN_POINT ( 'NONE',  ( 1.262783116304145192, 1.000000000000000000, -12.59207215334692975 ) ) ;
#532 = DIRECTION ( 'NONE',  ( -0.2593884901182366698, 0.000000000000000000, 0.9657730640239358122 ) ) ;
#533 = DIRECTION ( 'NONE',  ( 1.000000000000000000, 0.000000000000000000, 0.000000000000000000 ) ) ;
#534 = EDGE_CURVE ( 'NONE', #526, #520, #116, .T. ) ;
#535 = DIRECTION ( 'NONE',  ( 1.000000000000000000, 0.000000000000000000, 0.000000000000000000 ) ) ;
#536 = EDGE_CURVE ( 'NONE', #768, #616, #398, .T. ) ;
#537 = LINE ( 'NONE', #599, #152 ) ;
#538 = VECTOR ( 'NONE', #198, 1000.000000000000000 ) ;
#539 = ORIENTED_EDGE ( 'NONE', *, *, #20, .T. ) ;
#540 = DIRECTION ( 'NONE',  ( -0.6709919794848187014, 0.000000000000000000, -0.7414646070225096031 ) ) ;
#541 = ADVANCED_FACE ( 'NONE', ( #781 ), #303, .F. ) ;
#542 = VERTEX_POINT ( 'NONE', #384 ) ;
#543 = LINE ( 'NONE', #833, #383 ) ;
#544 = ORIENTED_EDGE ( 'NONE', *, *, #473, .T. ) ;
#545 = CIRCLE ( 'NONE', #164, 40.00000000000000711 ) ;
#546 = EDGE_CURVE ( 'NONE', #528, #168, #508, .T. ) ;
#547 = ORIENTED_EDGE ( 'NONE', *, *, #246, .T. ) ;
#548 = DIRECTION ( 'NONE',  ( 0.000000000000000000, 1.000000000000000000, 0.000000000000000000 ) ) ;
#549 = CARTESIAN_POINT ( 'NONE',  ( 39.87706403846111414, 0.000000000000000000, -13.47905876581868512 ) ) ;
#550 = AXIS2_PLACEMENT_3D ( 'NONE', #24, #784, #292 ) ;
#551 = VECTOR ( 'NONE', #663, 1000.000000000000000 ) ;
#552 = DIRECTION ( 'NONE',  ( 0.2593884901182366698, 0.000000000000000000, -0.9657730640239358122 ) ) ;
#553 = CARTESIAN_POINT ( 'NONE',  ( 6.750403311584462607, 1.000000000000000000, -37.40518294591988990 ) ) ;
#554 = VERTEX_POINT ( 'NONE', #163 ) ;
#555 = CARTESIAN_POINT ( 'NONE',  ( 34.31867247075327754, 1.000000000000000000, -25.16318899118316210 ) ) ;
#556 = ORIENTED_EDGE ( 'NONE', *, *, #176, .T. ) ;
#557 = DIRECTION ( 'NONE',  ( 0.009049730993118856870, 0.000000000000000000, -0.9999590503460390467 ) ) ;
#558 = EDGE_CURVE ( 'NONE', #255, #127, #404, .T. ) ;
#559 = CARTESIAN_POINT ( 'NONE',  ( 34.31867247075327754, 0.000000000000000000, -25.16318899118316210 ) ) ;
#560 = PLANE ( 'NONE',  #6 ) ;
#561 = DIRECTION ( 'NONE',  ( -0.000000000000000000, -1.000000000000000000, -0.000000000000000000 ) ) ;
#562 = CARTESIAN_POINT ( 'NONE',  ( 19.81449232173478592, 1.000000000000000000, -23.30953569921947732 ) ) ;
#563 = CARTESIAN_POINT ( 'NONE',  ( 34.02830528421466738, 0.000000000000000000, -45.04020359194090162 ) ) ;
#564 = AXIS2_PLACEMENT_3D ( 'NONE', #675, #68, #535 ) ;
#565 = VECTOR ( 'NONE', #430, 1000.000000000000000 ) ;
#566 = LINE ( 'NONE', #27, #57 ) ;
#567 = CARTESIAN_POINT ( 'NONE',  ( 28.81088525483565022, 0.000000000000000000, -31.82022930167423169 ) ) ;
#568 = CARTESIAN_POINT ( 'NONE',  ( 38.42216922683686420, 0.000000000000000000, -5.825267085049556037 ) ) ;
#569 = CARTESIAN_POINT ( 'NONE',  ( 29.90317519890833964, 1.000000000000000000, -45.42224441502437315 ) ) ;
#570 = EDGE_CURVE ( 'NONE', #530, #740, #452, .T. ) ;
#571 = EDGE_CURVE ( 'NONE', #123, #212, #92, .T. ) ;
#572 = FACE_OUTER_BOUND ( 'NONE', #719, .T. ) ;
#573 = DIRECTION ( 'NONE',  ( -0.9133031029189601080, 0.000000000000000000, 0.4072805448319366528 ) ) ;
#574 = CARTESIAN_POINT ( 'NONE',  ( 30.80938467140692794, 1.000000000000000000, -23.30953569921947732 ) ) ;
#575 = ORIENTED_EDGE ( 'NONE', *, *, #618, .F. ) ;
#576 = DIRECTION ( 'NONE',  ( -0.6721349868234076652, 0.000000000000000000, -0.7404286322718061086 ) ) ;
#577 = CARTESIAN_POINT ( 'NONE',  ( 39.87706403846111414, 1.000000000000000000, -13.47905876581868512 ) ) ;
#578 = DIRECTION ( 'NONE',  ( -0.6709919794848187014, 0.000000000000000000, -0.7414646070225096031 ) ) ;
#579 = AXIS2_PLACEMENT_3D ( 'NONE', #288, #368, #498 ) ;
#580 = DIRECTION ( 'NONE',  ( 0.9999590503460390467, 0.000000000000000000, 0.009049730993118858605 ) ) ;
#581 = ORIENTED_EDGE ( 'NONE', *, *, #121, .F. ) ;
#582 = CARTESIAN_POINT ( 'NONE',  ( 28.65655667270275586, 1.000000000000000000, -37.77757748988359765 ) ) ;
#583 = FACE_OUTER_BOUND ( 'NONE', #249, .T. ) ;
#584 = CARTESIAN_POINT ( 'NONE',  ( 28.81088525483565022, 1.000000000000000000, -31.82022930167423169 ) ) ;
#585 = ORIENTED_EDGE ( 'NONE', *, *, #536, .F. ) ;
#586 = DIRECTION ( 'NONE',  ( 1.000000000000000000, 0.000000000000000000, -0.000000000000000000 ) ) ;
#587 = VERTEX_POINT ( 'NONE', #29 ) ;
#588 = VECTOR ( 'NONE', #777, 999.9999999999998863 ) ;
#589 = EDGE_CURVE ( 'NONE', #751, #528, #718, .T. ) ;
#590 = CARTESIAN_POINT ( 'NONE',  ( 19.51425129874343156, 0.000000000000000000, -64.77976126965069170 ) ) ;
#591 = ORIENTED_EDGE ( 'NONE', *, *, #183, .F. ) ;
#592 = ORIENTED_EDGE ( 'NONE', *, *, #183, .T. ) ;
#593 = FACE_OUTER_BOUND ( 'NONE', #345, .T. ) ;
#594 = EDGE_LOOP ( 'NONE', ( #56, #278, #464, #403 ) ) ;
#595 = ADVANCED_FACE ( 'NONE', ( #231 ), #167, .F. ) ;
#596 = DIRECTION ( 'NONE',  ( 0.000000000000000000, 1.000000000000000000, 0.000000000000000000 ) ) ;
#597 = ORIENTED_EDGE ( 'NONE', *, *, #217, .T. ) ;
#598 = MECHANICAL_DESIGN_GEOMETRIC_PRESENTATION_REPRESENTATION (  '', ( #744 ), #233 ) ;
#599 = CARTESIAN_POINT ( 'NONE',  ( 6.427104669941083870, 0.000000000000000000, -31.82022930167423169 ) ) ;
#600 = EDGE_LOOP ( 'NONE', ( #664, #317, #186, #597 ) ) ;
#601 = CYLINDRICAL_SURFACE ( 'NONE', #206, 40.00000000000000711 ) ;
#602 = VECTOR ( 'NONE', #112, 1000.000000000000000 ) ;
#603 = VECTOR ( 'NONE', #46, 1000.000000000000000 ) ;
#604 = DIRECTION ( 'NONE',  ( -0.000000000000000000, -1.000000000000000000, -0.000000000000000000 ) ) ;
#605 = EDGE_CURVE ( 'NONE', #127, #395, #151, .T. ) ;
#606 = ORIENTED_EDGE ( 'NONE', *, *, #779, .F. ) ;
#607 = LINE ( 'NONE', #874, #686 ) ;
#608 = EDGE_CURVE ( 'NONE', #738, #868, #356, .T. ) ;
#609 = VERTEX_POINT ( 'NONE', #703 ) ;
#610 = LINE ( 'NONE', #875, #497 ) ;
#611 = ORIENTED_EDGE ( 'NONE', *, *, #799, .F. ) ;
#612 = DIRECTION ( 'NONE',  ( -0.000000000000000000, -1.000000000000000000, -0.000000000000000000 ) ) ;
#613 = VECTOR ( 'NONE', #677, 1000.000000000000000 ) ;
#614 = EDGE_CURVE ( 'NONE', #751, #530, #17, .T. ) ;
#615 = ORIENTED_EDGE ( 'NONE', *, *, #294, .F. ) ;
#616 = VERTEX_POINT ( 'NONE', #89 ) ;
#617 = PLANE ( 'NONE',  #658 ) ;
#618 = EDGE_CURVE ( 'NONE', #868, #530, #412, .T. ) ;
#619 = ORIENTED_EDGE ( 'NONE', *, *, #74, .F. ) ;
#620 = FACE_OUTER_BOUND ( 'NONE', #466, .T. ) ;
#621 = LINE ( 'NONE', #158, #717 ) ;
#622 = COLOUR_RGB ( '',0.7921568627450980005, 0.8196078431372548767, 0.9333333333333333481 ) ;
#623 = EDGE_LOOP ( 'NONE', ( #319, #5, #271, #653 ) ) ;
#624 = DIRECTION ( 'NONE',  ( -0.9999590503460390467, 0.000000000000000000, -0.009049730993118856870 ) ) ;
#625 = CARTESIAN_POINT ( 'NONE',  ( 31.93648430266279803, 1.000000000000000000, -24.48256380030016999 ) ) ;
#626 = AXIS2_PLACEMENT_3D ( 'NONE', #427, #88, #503 ) ;
#627 = VECTOR ( 'NONE', #449, 1000.000000000000114 ) ;
#628 = EDGE_LOOP ( 'NONE', ( #447, #146, #493, #544 ) ) ;
#629 = ADVANCED_FACE ( 'NONE', ( #419 ), #806, .F. ) ;
#630 = FACE_BOUND ( 'NONE', #852, .T. ) ;
#631 = ADVANCED_FACE ( 'NONE', ( #77 ), #343, .F. ) ;
#632 = DIRECTION ( 'NONE',  ( 0.9999590503460390467, 0.000000000000000000, 0.009049730993118858605 ) ) ;
#633 = DIRECTION ( 'NONE',  ( 0.000000000000000000, 1.000000000000000000, 0.000000000000000000 ) ) ;
#634 = LINE ( 'NONE', #156, #327 ) ;
#635 = EDGE_LOOP ( 'NONE', ( #70, #210, #453, #382 ) ) ;
#636 = CARTESIAN_POINT ( 'NONE',  ( 29.90317519890833964, 0.000000000000000000, -45.42224441502437315 ) ) ;
#637 = CYLINDRICAL_SURFACE ( 'NONE', #823, 40.00000000000000711 ) ;
#638 = LINE ( 'NONE', #296, #676 ) ;
#639 = CARTESIAN_POINT ( 'NONE',  ( 31.77586533465498420, 1.000000000000000000, -13.55237543710225268 ) ) ;
#640 = EDGE_CURVE ( 'NONE', #487, #389, #501, .T. ) ;
#641 = LINE ( 'NONE', #757, #329 ) ;
#642 = VECTOR ( 'NONE', #775, 1000.000000000000000 ) ;
#643 = DIRECTION ( 'NONE',  ( -0.000000000000000000, -1.000000000000000000, -0.000000000000000000 ) ) ;
#644 = DIRECTION ( 'NONE',  ( -0.6646245842071607512, 0.000000000000000000, -0.7471774635703748446 ) ) ;
#645 = CARTESIAN_POINT ( 'NONE',  ( 6.750403311584462607, 0.000000000000000000, -37.40518294591988990 ) ) ;
#646 = LINE ( 'NONE', #32, #627 ) ;
#647 =( LENGTH_UNIT ( ) NAMED_UNIT ( * ) SI_UNIT ( .MILLI., .METRE. ) );
#648 = CARTESIAN_POINT ( 'NONE',  ( 22.28910681766330981, 1.000000000000000000, -32.62627464172461345 ) ) ;
#649 = ORIENTED_EDGE ( 'NONE', *, *, #322, .F. ) ;
#650 = CARTESIAN_POINT ( 'NONE',  ( 34.02830528421466738, 1.000000000000000000, -45.04020359194090162 ) ) ;
#651 = LINE ( 'NONE', #106, #789 ) ;
#652 = FACE_OUTER_BOUND ( 'NONE', #628, .T. ) ;
#653 = ORIENTED_EDGE ( 'NONE', *, *, #761, .T. ) ;
#654 = EDGE_CURVE ( 'NONE', #253, #882, #621, .T. ) ;
#655 = CARTESIAN_POINT ( 'NONE',  ( 36.89931015396237513, 0.000000000000000000, -26.29189786628414893 ) ) ;
#656 = ORIENTED_EDGE ( 'NONE', *, *, #876, .T. ) ;
#657 = ORIENTED_EDGE ( 'NONE', *, *, #661, .F. ) ;
#658 = AXIS2_PLACEMENT_3D ( 'NONE', #137, #881, #9 ) ;
#659 = ORIENTED_EDGE ( 'NONE', *, *, #475, .T. ) ;
#660 = ORIENTED_EDGE ( 'NONE', *, *, #685, .T. ) ;
#661 = EDGE_CURVE ( 'NONE', #188, #3, #159, .T. ) ;
#662 = APPLICATION_CONTEXT ( 'automotive_design' ) ;
#663 = DIRECTION ( 'NONE',  ( -1.000000000000000000, 0.000000000000000000, 0.000000000000000000 ) ) ;
#664 = ORIENTED_EDGE ( 'NONE', *, *, #465, .T. ) ;
#665 = LINE ( 'NONE', #469, #60 ) ;
#666 = ORIENTED_EDGE ( 'NONE', *, *, #608, .F. ) ;
#667 = CARTESIAN_POINT ( 'NONE',  ( 1.440650879148764885, 1.000000000000000000, -45.42224441502436605 ) ) ;
#668 = ORIENTED_EDGE ( 'NONE', *, *, #294, .T. ) ;
#669 = PRODUCT_DEFINITION_CONTEXT ( 'detailed design', #267, 'design' ) ;
#670 = CARTESIAN_POINT ( 'NONE',  ( 28.65655667270275586, 1.000000000000000000, -37.77757748988359765 ) ) ;
#671 = ORIENTED_EDGE ( 'NONE', *, *, #463, .T. ) ;
#672 = VECTOR ( 'NONE', #753, 1000.000000000000000 ) ;
#673 = CARTESIAN_POINT ( 'NONE',  ( 26.17228478707281525, 0.000000000000000000, -16.30574677041156662 ) ) ;
#674 = CARTESIAN_POINT ( 'NONE',  ( 17.70695240253572322, 1.000000000000000000, -37.77757748988359765 ) ) ;
#675 = CARTESIAN_POINT ( 'NONE',  ( 0.000000000000000000, 0.000000000000000000, 0.000000000000000000 ) ) ;
#676 = VECTOR ( 'NONE', #573, 1000.000000000000114 ) ;
#677 = DIRECTION ( 'NONE',  ( 1.000000000000000000, 0.000000000000000000, 0.000000000000000000 ) ) ;
#678 = VECTOR ( 'NONE', #796, 1000.000000000000227 ) ;
#679 = LINE ( 'NONE', #667, #697 ) ;
#680 = EDGE_CURVE ( 'NONE', #315, #542, #641, .T. ) ;
#681 = DIRECTION ( 'NONE',  ( -1.000000000000000000, 0.000000000000000000, -0.000000000000000000 ) ) ;
#682 = UNCERTAINTY_MEASURE_WITH_UNIT (LENGTH_MEASURE( 1.000000000000000082E-05 ), #379, 'distance_accuracy_value', 'NONE');
#683 = ORIENTED_EDGE ( 'NONE', *, *, #331, .T. ) ;
#684 = LINE ( 'NONE', #490, #826 ) ;
#685 = EDGE_CURVE ( 'NONE', #395, #554, #211, .T. ) ;
#686 = VECTOR ( 'NONE', #533, 1000.000000000000000 ) ;
#687 = ORIENTED_EDGE ( 'NONE', *, *, #214, .T. ) ;
#688 = FACE_OUTER_BOUND ( 'NONE', #728, .T. ) ;
#689 = DIRECTION ( 'NONE',  ( -0.000000000000000000, -1.000000000000000000, -0.000000000000000000 ) ) ;
#690 = CARTESIAN_POINT ( 'NONE',  ( 29.82998834717564307, 0.000000000000000000, -24.08613505627843310 ) ) ;
#691 = ORIENTED_EDGE ( 'NONE', *, *, #841, .F. ) ;
#692 = FACE_OUTER_BOUND ( 'NONE', #733, .T. ) ;
#693 = DIRECTION ( 'NONE',  ( 0.5521810349673796914, 0.000000000000000000, 0.8337242377563179874 ) ) ;
#694 = EDGE_CURVE ( 'NONE', #307, #450, #49, .T. ) ;
#695 = ORIENTED_EDGE ( 'NONE', *, *, #140, .F. ) ;
#696 = PLANE ( 'NONE',  #716 ) ;
#697 = VECTOR ( 'NONE', #873, 1000.000000000000000 ) ;
#698 = CARTESIAN_POINT ( 'NONE',  ( 31.93648430266279803, 1.000000000000000000, -24.48256380030016999 ) ) ;
#699 = AXIS2_PLACEMENT_3D ( 'NONE', #173, #437, #586 ) ;
#700 = FACE_OUTER_BOUND ( 'NONE', #862, .T. ) ;
#701 = LINE ( 'NONE', #354, #239 ) ;
#702 = ORIENTED_EDGE ( 'NONE', *, *, #455, .T. ) ;
#703 = CARTESIAN_POINT ( 'NONE',  ( 39.04953443609771568, 1.000000000000000000, -5.514770865354867269 ) ) ;
#704 = CARTESIAN_POINT ( 'NONE',  ( 19.51425129874342801, -3.000000000000000000, -24.77976126965068815 ) ) ;
#705 = ADVANCED_FACE ( 'NONE', ( #36 ), #369, .F. ) ;
#706 = LINE ( 'NONE', #711, #756 ) ;
#707 = ADVANCED_FACE ( 'NONE', ( #850 ), #378, .F. ) ;
#708 = DIRECTION ( 'NONE',  ( 0.000000000000000000, 1.000000000000000000, 0.000000000000000000 ) ) ;
#709 = CARTESIAN_POINT ( 'NONE',  ( 34.02830528421466738, 1.000000000000000000, -45.04020359194090162 ) ) ;
#710 = DIRECTION ( 'NONE',  ( 0.000000000000000000, 0.000000000000000000, -1.000000000000000000 ) ) ;
#711 = CARTESIAN_POINT ( 'NONE',  ( 6.427104669941083870, 1.000000000000000000, -31.82022930167423169 ) ) ;
#712 = ADVANCED_FACE ( 'NONE', ( #175 ), #240, .F. ) ;
#713 = CARTESIAN_POINT ( 'NONE',  ( 39.14865748404979229, 0.000000000000000000, -41.93005967710561066 ) ) ;
#714 = CARTESIAN_POINT ( 'NONE',  ( 32.01728764868309440, 1.000000000000000000, -36.44760319640853652 ) ) ;
#715 = AXIS2_PLACEMENT_3D ( 'NONE', #191, #386, #391 ) ;
#716 = AXIS2_PLACEMENT_3D ( 'NONE', #72, #338, #821 ) ;
#717 = VECTOR ( 'NONE', #145, 1000.000000000000000 ) ;
#718 = LINE ( 'NONE', #574, #439 ) ;
#719 = EDGE_LOOP ( 'NONE', ( #134, #108, #649, #238 ) ) ;
#720 = PLANE ( 'NONE',  #130 ) ;
#721 = LINE ( 'NONE', #182, #96 ) ;
#722 = CARTESIAN_POINT ( 'NONE',  ( 39.04953443609771568, 0.000000000000000000, -5.514770865354867269 ) ) ;
#723 = ORIENTED_EDGE ( 'NONE', *, *, #841, .T. ) ;
#724 = CARTESIAN_POINT ( 'NONE',  ( 17.24610358125002563, 0.000000000000000000, -16.30574677041156662 ) ) ;
#725 = ORIENTED_EDGE ( 'NONE', *, *, #121, .T. ) ;
#726 = CARTESIAN_POINT ( 'NONE',  ( 31.77586533465498420, 0.000000000000000000, -13.55237543710225268 ) ) ;
#727 = LINE ( 'NONE', #50, #602 ) ;
#728 = EDGE_LOOP ( 'NONE', ( #725, #477, #760, #731 ) ) ;
#729 = ORIENTED_EDGE ( 'NONE', *, *, #465, .F. ) ;
#730 = CARTESIAN_POINT ( 'NONE',  ( 29.90317519890833964, 0.000000000000000000, -45.42224441502437315 ) ) ;
#731 = ORIENTED_EDGE ( 'NONE', *, *, #457, .T. ) ;
#732 = LINE ( 'NONE', #454, #747 ) ;
#733 = EDGE_LOOP ( 'NONE', ( #758, #381, #178, #47 ) ) ;
#734 = AXIS2_PLACEMENT_3D ( 'NONE', #83, #557, #624 ) ;
#735 = LINE ( 'NONE', #58, #336 ) ;
#736 = ORIENTED_EDGE ( 'NONE', *, *, #262, .T. ) ;
#737 = CARTESIAN_POINT ( 'NONE',  ( 39.87706403846111414, 1.000000000000000000, -13.47905876581868512 ) ) ;
#738 = VERTEX_POINT ( 'NONE', #726 ) ;
#739 = EDGE_CURVE ( 'NONE', #554, #882, #165, .T. ) ;
#740 = VERTEX_POINT ( 'NONE', #170 ) ;
#741 = CARTESIAN_POINT ( 'NONE',  ( 32.01728764868309440, 1.000000000000000000, -36.44760319640853652 ) ) ;
#742 = ORIENTED_EDGE ( 'NONE', *, *, #570, .F. ) ;
#743 = ADVANCED_FACE ( 'NONE', ( #441 ), #720, .F. ) ;
#744 = STYLED_ITEM ( 'NONE', ( #375 ), #26 ) ;
#745 = CARTESIAN_POINT ( 'NONE',  ( 10.88460420860729627, 0.000000000000000000, -11.65053417009911207 ) ) ;
#746 = CARTESIAN_POINT ( 'NONE',  ( 26.17228478707281525, 1.000000000000000000, -16.30574677041156662 ) ) ;
#747 = VECTOR ( 'NONE', #318, 1000.000000000000000 ) ;
#748 = EDGE_CURVE ( 'NONE', #832, #790, #306, .T. ) ;
#749 = LINE ( 'NONE', #460, #290 ) ;
#750 = EDGE_CURVE ( 'NONE', #487, #123, #324, .T. ) ;
#751 = VERTEX_POINT ( 'NONE', #802 ) ;
#752 = CARTESIAN_POINT ( 'NONE',  ( 19.51425129874342801, -3.000000000000000000, 15.22023873034931896 ) ) ;
#753 = DIRECTION ( 'NONE',  ( 1.000000000000000000, 0.000000000000000000, 0.000000000000000000 ) ) ;
#754 = LINE ( 'NONE', #139, #436 ) ;
#755 = ORIENTED_EDGE ( 'NONE', *, *, #614, .F. ) ;
#756 = VECTOR ( 'NONE', #291, 1000.000000000000000 ) ;
#757 = CARTESIAN_POINT ( 'NONE',  ( 10.88460420860729627, 1.000000000000000000, -11.65053417009911207 ) ) ;
#758 = ORIENTED_EDGE ( 'NONE', *, *, #570, .T. ) ;
#759 = DIRECTION ( 'NONE',  ( 0.000000000000000000, -1.000000000000000000, 0.000000000000000000 ) ) ;
#760 = ORIENTED_EDGE ( 'NONE', *, *, #748, .F. ) ;
#761 = EDGE_CURVE ( 'NONE', #801, #188, #651, .T. ) ;
#762 = CARTESIAN_POINT ( 'NONE',  ( 1.440650879148764885, 0.000000000000000000, -45.42224441502436605 ) ) ;
#763 = ORIENTED_EDGE ( 'NONE', *, *, #793, .T. ) ;
#764 = CARTESIAN_POINT ( 'NONE',  ( 29.82998834717564307, 1.000000000000000000, -24.08613505627843310 ) ) ;
#765 = ORIENTED_EDGE ( 'NONE', *, *, #534, .T. ) ;
#766 = CARTESIAN_POINT ( 'NONE',  ( 39.14865748404979229, 1.000000000000000000, -41.93005967710561066 ) ) ;
#767 = PRODUCT ( 'RM\X2\54688fb9\X0\', 'RM\X2\54688fb9\X0\', '', ( #61 ) ) ;
#768 = VERTEX_POINT ( 'NONE', #590 ) ;
#769 = FACE_BOUND ( 'NONE', #120, .T. ) ;
#770 = AXIS2_PLACEMENT_3D ( 'NONE', #316, #476, #681 ) ;
#771 = ORIENTED_EDGE ( 'NONE', *, *, #335, .F. ) ;
#772 = CARTESIAN_POINT ( 'NONE',  ( 39.14865748404979229, 1.000000000000000000, -41.93005967710561066 ) ) ;
#773 = EDGE_CURVE ( 'NONE', #333, #253, #646, .T. ) ;
#774 = DIRECTION ( 'NONE',  ( 0.6780133163438215593, 0.000000000000000000, 0.7350496193186233373 ) ) ;
#775 = DIRECTION ( 'NONE',  ( 0.6721349868234076652, 0.000000000000000000, 0.7404286322718062197 ) ) ;
#776 = DIRECTION ( 'NONE',  ( 1.000000000000000000, 0.000000000000000000, 0.000000000000000000 ) ) ;
#777 = DIRECTION ( 'NONE',  ( -0.6646245842071607512, 0.000000000000000000, -0.7471774635703748446 ) ) ;
#778 = SURFACE_SIDE_STYLE ('',( #434 ) ) ;
#779 = EDGE_CURVE ( 'NONE', #215, #526, #732, .T. ) ;
#780 = FACE_OUTER_BOUND ( 'NONE', #635, .T. ) ;
#781 = FACE_OUTER_BOUND ( 'NONE', #461, .T. ) ;
#782 = CARTESIAN_POINT ( 'NONE',  ( 32.01728764868309440, 0.000000000000000000, -36.44760319640853652 ) ) ;
#783 = CARTESIAN_POINT ( 'NONE',  ( -0.8485614409742567865, 1.000000000000000000, -11.65053417009911207 ) ) ;
#784 = DIRECTION ( 'NONE',  ( 0.000000000000000000, 1.000000000000000000, 0.000000000000000000 ) ) ;
#785 = ORIENTED_EDGE ( 'NONE', *, *, #773, .T. ) ;
#786 = CARTESIAN_POINT ( 'NONE',  ( 28.81088525483565022, 0.000000000000000000, -31.82022930167423169 ) ) ;
#787 = VECTOR ( 'NONE', #561, 1000.000000000000000 ) ;
#788 = PLANE ( 'NONE',  #579 ) ;
#789 = VECTOR ( 'NONE', #38, 1000.000000000000000 ) ;
#790 = VERTEX_POINT ( 'NONE', #531 ) ;
#791 = DIRECTION ( 'NONE',  ( 0.8962405783657104719, 0.000000000000000000, 0.4435682875169241202 ) ) ;
#792 = ORIENTED_EDGE ( 'NONE', *, *, #521, .F. ) ;
#793 = EDGE_CURVE ( 'NONE', #808, #751, #462, .T. ) ;
#794 = DIRECTION ( 'NONE',  ( 0.7404286322718062197, 0.000000000000000000, -0.6721349868234077762 ) ) ;
#795 = PRODUCT_DEFINITION_SHAPE ( 'NONE', 'NONE',  #132 ) ;
#796 = DIRECTION ( 'NONE',  ( -0.2593884901182366698, 0.000000000000000000, 0.9657730640239358122 ) ) ;
#797 = DIRECTION ( 'NONE',  ( -0.7414646070225096031, 0.000000000000000000, 0.6709919794848187014 ) ) ;
#798 = ORIENTED_EDGE ( 'NONE', *, *, #140, .T. ) ;
#799 = EDGE_CURVE ( 'NONE', #882, #123, #870, .T. ) ;
#800 = DIRECTION ( 'NONE',  ( -0.000000000000000000, -1.000000000000000000, -0.000000000000000000 ) ) ;
#801 = VERTEX_POINT ( 'NONE', #670 ) ;
#802 = CARTESIAN_POINT ( 'NONE',  ( 30.80938467140692794, 1.000000000000000000, -23.30953569921947732 ) ) ;
#803 = EDGE_LOOP ( 'NONE', ( #849, #298, #251, #41 ) ) ;
#804 = LINE ( 'NONE', #185, #815 ) ;
#805 = EDGE_LOOP ( 'NONE', ( #321, #35, #248, #117 ) ) ;
#806 = B_SPLINE_SURFACE_WITH_KNOTS ( 'NONE', 9, 1, ( 
 ( #280, #690 ),
 ( #698, #293 ),
 ( #220, #559 ),
 ( #429, #836 ),
 ( #81, #424 ),
 ( #149, #287 ),
 ( #772, #154 ),
 ( #141, #25 ),
 ( #709, #563 ),
 ( #569, #636 ) ),
 .UNSPECIFIED., .F., .F., .F.,
 ( 10, 10 ),
 ( 2, 2 ),
 ( 0.000000000000000000, 1.000000000000000000 ),
 ( 0.000000000000000000, 1.000000000000000000 ),
 .UNSPECIFIED. ) ;
#807 =( NAMED_UNIT ( * ) PLANE_ANGLE_UNIT ( ) SI_UNIT ( $, .RADIAN. ) );
#808 = VERTEX_POINT ( 'NONE', #737 ) ;
#809 = CARTESIAN_POINT ( 'NONE',  ( 29.90317519890833964, 1.000000000000000000, -45.42224441502437315 ) ) ;
#810 = ORIENTED_EDGE ( 'NONE', *, *, #411, .T. ) ;
#811 = CARTESIAN_POINT ( 'NONE',  ( 6.427104669941083870, 1.000000000000000000, -31.82022930167423169 ) ) ;
#812 = CARTESIAN_POINT ( 'NONE',  ( 28.81088525483565022, 1.000000000000000000, -31.82022930167423169 ) ) ;
#813 = PLANE ( 'NONE',  #118 ) ;
#814 = EDGE_CURVE ( 'NONE', #609, #520, #721, .T. ) ;
#815 = VECTOR ( 'NONE', #394, 1000.000000000000000 ) ;
#816 = CARTESIAN_POINT ( 'NONE',  ( 30.02639503993476922, 1.000000000000000000, -32.22527401605268693 ) ) ;
#817 = ADVANCED_FACE ( 'NONE', ( #101 ), #601, .T. ) ;
#818 = ORIENTED_EDGE ( 'NONE', *, *, #162, .T. ) ;
#819 = FACE_OUTER_BOUND ( 'NONE', #314, .T. ) ;
#820 = ORIENTED_EDGE ( 'NONE', *, *, #87, .T. ) ;
#821 = DIRECTION ( 'NONE',  ( 0.000000000000000000, -0.000000000000000000, 1.000000000000000000 ) ) ;
#822 = ORIENTED_EDGE ( 'NONE', *, *, #546, .F. ) ;
#823 = AXIS2_PLACEMENT_3D ( 'NONE', #353, #633, #284 ) ;
#824 = ORIENTED_EDGE ( 'NONE', *, *, #571, .F. ) ;
#825 = CARTESIAN_POINT ( 'NONE',  ( 39.08333214403054967, 1.000000000000000000, -33.77189629308977459 ) ) ;
#826 = VECTOR ( 'NONE', #334, 1000.000000000000000 ) ;
#827 = AXIS2_PLACEMENT_3D ( 'NONE', #855, #794, #576 ) ;
#828 = DIRECTION ( 'NONE',  ( 0.2651954753936625608, 0.000000000000000000, -0.9641946690532618991 ) ) ;
#829 = LINE ( 'NONE', #443, #80 ) ;
#830 = DIRECTION ( 'NONE',  ( 0.000000000000000000, -0.000000000000000000, 1.000000000000000000 ) ) ;
#831 = CARTESIAN_POINT ( 'NONE',  ( 36.89931015396237513, 1.000000000000000000, -26.29189786628414893 ) ) ;
#832 = VERTEX_POINT ( 'NONE', #811 ) ;
#833 = CARTESIAN_POINT ( 'NONE',  ( 39.87706403846111414, 1.000000000000000000, -13.47905876581868512 ) ) ;
#834 = ADVANCED_FACE ( 'NONE', ( #583 ), #119, .F. ) ;
#835 = ORIENTED_EDGE ( 'NONE', *, *, #680, .T. ) ;
#836 = CARTESIAN_POINT ( 'NONE',  ( 36.89931015396237513, 0.000000000000000000, -26.29189786628414893 ) ) ;
#837 = LINE ( 'NONE', #567, #62 ) ;
#838 = CARTESIAN_POINT ( 'NONE',  ( 19.51425129874342801, 0.000000000000000000, -24.77976126965068815 ) ) ;
#839 = AXIS2_PLACEMENT_3D ( 'NONE', #809, #260, #320 ) ;
#840 = DIRECTION ( 'NONE',  ( -0.6865881511188161035, 0.000000000000000000, -0.7270465671078061298 ) ) ;
#841 = EDGE_CURVE ( 'NONE', #168, #232, #856, .T. ) ;
#842 = DIRECTION ( 'NONE',  ( 1.000000000000000000, 0.000000000000000000, 0.000000000000000000 ) ) ;
#843 = LINE ( 'NONE', #91, #603 ) ;
#844 = CARTESIAN_POINT ( 'NONE',  ( 19.81449232173478592, 1.000000000000000000, -23.30953569921947732 ) ) ;
#845 = DIRECTION ( 'NONE',  ( -0.6780133163438216704, 0.000000000000000000, -0.7350496193186232263 ) ) ;
#846 = CARTESIAN_POINT ( 'NONE',  ( 19.51425129874342801, -3.000000000000000000, -24.77976126965068815 ) ) ;
#847 = CARTESIAN_POINT ( 'NONE',  ( 6.427104669941083870, 0.000000000000000000, -31.82022930167423169 ) ) ;
#848 = DIRECTION ( 'NONE',  ( -1.000000000000000000, 0.000000000000000000, 0.000000000000000000 ) ) ;
#849 = ORIENTED_EDGE ( 'NONE', *, *, #571, .T. ) ;
#850 = FACE_OUTER_BOUND ( 'NONE', #385, .T. ) ;
#851 = PLANE ( 'NONE',  #42 ) ;
#852 = EDGE_LOOP ( 'NONE', ( #205, #268, #491, #581, #729, #657, #199, #824, #611, #392, #339, #861, #405, #245 ) ) ;
#853 = CARTESIAN_POINT ( 'NONE',  ( 39.04953443609771568, 0.000000000000000000, -5.514770865354867269 ) ) ;
#854 = ORIENTED_EDGE ( 'NONE', *, *, #496, .T. ) ;
#855 = CARTESIAN_POINT ( 'NONE',  ( 19.81449232173478592, 1.000000000000000000, -23.30953569921947732 ) ) ;
#856 = LINE ( 'NONE', #511, #435 ) ;
#857 = FILL_AREA_STYLE ('',( #86 ) ) ;
#858 = ORIENTED_EDGE ( 'NONE', *, *, #426, .T. ) ;
#859 = VECTOR ( 'NONE', #283, 1000.000000000000000 ) ;
#860 = CARTESIAN_POINT ( 'NONE',  ( 34.31867247075327754, 0.000000000000000000, -25.16318899118316210 ) ) ;
#861 = ORIENTED_EDGE ( 'NONE', *, *, #605, .F. ) ;
#862 = EDGE_LOOP ( 'NONE', ( #181, #798, #792, #142 ) ) ;
#863 = DIRECTION ( 'NONE',  ( -0.000000000000000000, -1.000000000000000000, -0.000000000000000000 ) ) ;
#864 = ORIENTED_EDGE ( 'NONE', *, *, #258, .T. ) ;
#865 = CARTESIAN_POINT ( 'NONE',  ( 11.26337671024335130, 0.000000000000000000, -32.62627464172461345 ) ) ;
#866 = ORIENTED_EDGE ( 'NONE', *, *, #359, .T. ) ;
#867 = LINE ( 'NONE', #52, #613 ) ;
#868 = VERTEX_POINT ( 'NONE', #242 ) ;
#869 = VECTOR ( 'NONE', #518, 1000.000000000000000 ) ;
#870 = LINE ( 'NONE', #367, #869 ) ;
#871 = EDGE_CURVE ( 'NONE', #450, #456, #665, .T. ) ;
#872 = VECTOR ( 'NONE', #500, 1000.000000000000000 ) ;
#873 = DIRECTION ( 'NONE',  ( -0.000000000000000000, -1.000000000000000000, -0.000000000000000000 ) ) ;
#874 = CARTESIAN_POINT ( 'NONE',  ( 14.30493538722118885, 1.000000000000000000, -24.08613505627843310 ) ) ;
#875 = CARTESIAN_POINT ( 'NONE',  ( 28.81088525483565022, 1.000000000000000000, -31.82022930167423169 ) ) ;
#876 = EDGE_CURVE ( 'NONE', #281, #468, #727, .T. ) ;
#877 = ORIENTED_EDGE ( 'NONE', *, *, #608, .T. ) ;
#878 = VECTOR ( 'NONE', #863, 1000.000000000000000 ) ;
#879 = FACE_OUTER_BOUND ( 'NONE', #113, .T. ) ;
#880 = EDGE_LOOP ( 'NONE', ( #660, #771, #523, #355 ) ) ;
#881 = DIRECTION ( 'NONE',  ( 0.000000000000000000, -0.000000000000000000, 1.000000000000000000 ) ) ;
#882 = VERTEX_POINT ( 'NONE', #865 ) ;
ENDSEC;
END-ISO-10303-21;
